{"title":"Cake 2014 1080p BluRay x264 GECKOS DUAL","uid":12204433,"size":8551359774,"categoryP":"video","categoryS":"hd___movies","magnet":"?xt=urn:btih:e66e961b78f9ed0e0beddd6d722f8cfac33f3e50&amp;dn=Cake+2014+1080p+BluRay+x264+GECKOS+DUAL&amp;tr=udp%3A%2F%2Ftracker.openbittorrent.com%3A80&amp;tr=udp%3A%2F%2Fopen.demonii.com%3A1337&amp;tr=udp%3A%2F%2Ftracker.coppersurfer.tk%3A6969&amp;tr=udp%3A%2F%2Fexodus.desync.com%3A6969","seeders":0,"leechers":0,"uploader":"Alemao99","files":5,"time":1438898308,"description":"Claire Simmons (Jennifer Aniston) is a traumatized and depressed woman who seeks help in a group for people with chronic pain. There she discovers the suicide of one of the group members, Nina (Anna Kendrick). Claire is obsessed with the story of this woman, and begins to investigate his life. Gradually begin to develop an unexpected relationship with her ex-husband of Nina, Roy (Sam Worthington).\n\nTitle in Brazil: Cake - A Reason to Live\nOriginal Title: Cake\nRelease Date: 2014\nGenre: Drama\nDuration: 102 min\nDirector: Daniel Barnz\nIMDb: http://www.imdb.com/title/tt3442006/\n\nSize: 7.96 GB\nExtension Archive: .MKV\nVideo Quality: BluRay\nVideo codec: H.264 / AVC\nAudio codec: AC3 5.1 / DTS 5.1\nResolution: 1920 x 792\nAudio: Portuguese / English\nSubtitles: Portuguese\n\n\nFormat                                   : Matroska\nFormat version                           : Version 4 / Version 2\nFile size                                : 7.96 GiB\nDuration                                 : 1h 41mn\nOverall bit rate                         : 11.2 Mbps\nMovie name                               : Cake.Uma.Razao.Para.Viver.2015.1080p.BluRay.x264.GECKOS.DUAL-BRENYS\nEncoded date                             : UTC 2015-07-30 05:41:08\nWriting application                      : mkvmerge v7.2.0 ('On Every Street') 32bit built on Sep 13 2014 15:42:11\nWriting library                          : libebml v1.3.0 + libmatroska v1.4.1\nDURATION                                 : 01:41:44.992000000\nNUMBER_OF_FRAMES                         : 190781\nNUMBER_OF_BYTES                          : 341879552\n_STATISTICS_WRITING_APP                  : mkvmerge v7.2.0 ('On Every Street') 32bit built on Sep 13 2014 15:42:11\n_STATISTICS_WRITING_DATE_UTC             : 2015-07-30 05:41:08\n_STATISTICS_TAGS                         : BPS DURATION NUMBER_OF_FRAMES NUMBER_OF_BYTES\n\nVideo\nID                                       : 1\nFormat                                   : AVC\nFormat/Info                              : Advanced Video Codec\nFormat profile                           : &lt;a class=&quot;__cf_email__&quot; href=&quot;/cdn-cgi/l/email-protection&quot; data-cfemail=&quot;3971505e5179750d1708&quot;&gt;[email&amp;#160;protected]&lt;/a&gt;&lt;script data-cfhash='f9e31' type=&quot;text/javascript&quot;&gt;\n/* &lt;![CDATA[ */!function(){try{var t=&quot;currentScript&quot;in document?document.currentScript:function(){for(var t=document.getElementsByTagName(&quot;script&quot;),e=t.length;e--;)if(t[e].getAttribute(&quot;data-cfhash&quot;))return t[e]}();if(t&amp;&amp;t.previousSibling){var e,r,n,i,c=t.previousSibling,a=c.getAttribute(&quot;data-cfemail&quot;);if(a){for(e=&quot;&quot;,r=parseInt(a.substr(0,2),16),n=2;a.length-n;n+=2)i=parseInt(a.substr(n,2),16)^r,e+=String.fromCharCode(i);e=document.createTextNode(e),c.parentNode.replaceChild(e,c)}t.parentNode.removeChild(t);}}catch(u){}}()/* ]]&gt; */&lt;/script&gt;\nFormat settings, CABAC                   : Yes\nFormat settings, ReFrames                : 5 frames\nCodec ID                                 : V_MPEG4/ISO/AVC\nDuration                                 : 1h 41mn\nBit rate                                 : 9 252 Kbps\nWidth                                    : 1 920 pixels\nHeight                                   : 792 pixels\nDisplay aspect ratio                     : 2.40:1\nFrame rate                               : 23.976 fps\nColor space                              : YUV\nChroma subsampling                       : 4:2:0\nBit depth                                : 8 bits\nScan type                                : Progressive\nBits/(Pixel*Frame)                       : 0.254\nStream size                              : 6.41 GiB (81%)\nTitle                                    : Cake.Uma.Razao.Para.Viver.2015.1080p.BluRay.x264.GECKOS.DUAL-BRENYS\nWriting library                          : x264 core 144 r2525 40bb568\nEncoding settings                        : cabac=1 / ref=5 / deblock=1:0:0 / analyse=0x3:0x133 / me=umh / subme=7 / psy=1 / psy_rd=1.00:0.00 / mixed_ref=1 / me_range=16 / chroma_me=1 / trellis=1 / 8x8dct=1 / cqm=0 / deadzone=21,11 / fast_pskip=0 / chroma_qp_offset=-2 / threads=18 / lookahead_threads=3 / sliced_threads=0 / nr=0 / decimate=1 / interlaced=0 / bluray_compat=0 / constrained_intra=0 / bframes=3 / b_pyramid=2 / b_adapt=1 / b_bias=0 / direct=1 / weightb=1 / open_gop=0 / weightp=2 / keyint=250 / keyint_min=23 / scenecut=40 / intra_refresh=0 / rc_lookahead=40 / rc=2pass / mbtree=1 / bitrate=9252 / ratetol=1.0 / qcomp=0.60 / qpmin=0 / qpmax=69 / qpstep=4 / cplxblur=20.0 / qblur=0.5 / ip_ratio=1.40 / aq=1:1.00\nDefault                                  : Yes\nForced                                   : No\nDURATION                                 : 01:41:45.026000000\nNUMBER_OF_FRAMES                         : 146374\nNUMBER_OF_BYTES                          : 7055733308\n_STATISTICS_WRITING_APP                  : mkvmerge v7.2.0 ('On Every Street') 32bit built on Sep 13 2014 15:42:11\n_STATISTICS_WRITING_DATE_UTC             : 2015-07-30 05:41:08\n_STATISTICS_TAGS                         : BPS DURATION NUMBER_OF_FRAMES NUMBER_OF_BYTES\n\nAudio #1\nID                                       : 2\nFormat                                   : AC-3\nFormat/Info                              : Audio Coding 3\nMode extension                           : CM (complete main)\nFormat settings, Endianness              : Big\nCodec ID                                 : A_AC3\nDuration                                 : 1h 41mn\nBit rate mode                            : Constant\nBit rate                                 : 448 Kbps\nChannel(s)                               : 6 channels\nChannel positions                        : Front: L C R, Side: L R, LFE\nSampling rate                            : 48.0 KHz\nBit depth                                : 16 bits\nCompression mode                         : Lossy\nStream size                              : 326 MiB (4%)\nTitle                                    : Portugues AC3 5.1- BRENYS\nLanguage                                 : Portuguese\nDefault                                  : Yes\nForced                                   : No\n\nAudio #2\nID                                       : 3\nFormat                                   : DTS\nFormat/Info                              : Digital Theater Systems\nCodec ID                                 : A_DTS\nDuration                                 : 1h 41mn\nBit rate mode                            : Constant\nBit rate                                 : 1 510 Kbps\nChannel(s)                               : 6 channels\nChannel positions                        : Front: L C R, Side: L R, LFE\nSampling rate                            : 48.0 KHz\nBit depth                                : 24 bits\nCompression mode                         : Lossy\nStream size                              : 1.07 GiB (13%)\nLanguage                                 : English\nDefault                                  : No\nForced                                   : No","torrent":{"xt":"urn:btih:e66e961b78f9ed0e0beddd6d722f8cfac33f3e50","amp;dn":"Cake+2014+1080p+BluRay+x264+GECKOS+DUAL","amp;tr":["udp%3A%2F%2Ftracker.openbittorrent.com%3A80","udp%3A%2F%2Fopen.demonii.com%3A1337","udp%3A%2F%2Ftracker.coppersurfer.tk%3A6969","udp%3A%2F%2Fexodus.desync.com%3A6969"],"infoHash":"e66e961b78f9ed0e0beddd6d722f8cfac33f3e50","infoHashBuffer":{"type":"Buffer","data":[230,110,150,27,120,249,237,14,11,237,221,109,114,47,140,250,195,63,62,80]},"announce":[],"urlList":[]}}